<?xml version="1.0" encoding="UTF-8" standalone="no"?>
<!-- Created with Inkscape (http://www.inkscape.org/) -->
<svg
   xmlns:dc="http://purl.org/dc/elements/1.1/"
   xmlns:cc="http://web.resource.org/cc/"
   xmlns:rdf="http://www.w3.org/1999/02/22-rdf-syntax-ns#"
   xmlns:svg="http://www.w3.org/2000/svg"
   xmlns="http://www.w3.org/2000/svg"
   xmlns:xlink="http://www.w3.org/1999/xlink"
   xmlns:sodipodi="http://sodipodi.sourceforge.net/DTD/sodipodi-0.dtd"
   xmlns:inkscape="http://www.inkscape.org/namespaces/inkscape"
   width="64"
   height="64"
   id="svg2"
   sodipodi:version="0.32"
   inkscape:version="0.45.1"
   version="1.0"
   sodipodi:docbase="C:\Del\workspace-tagsea\net.sourceforge.tagsea.instrumentation\icons"
   sodipodi:docname="upload.svg"
   inkscape:output_extension="org.inkscape.output.svg.inkscape"
   inkscape:export-filename="C:\Del\workspace-tagsea\net.sourceforge.tagsea.instrumentation\icons\upload.png"
   inkscape:export-xdpi="90"
   inkscape:export-ydpi="90">
  <defs
     id="defs4">
    <linearGradient
       id="linearGradient3195">
      <stop
         style="stop-color:#8686ff;stop-opacity:1;"
         offset="0"
         id="stop3197" />
      <stop
         style="stop-color:#1f22ff;stop-opacity:0;"
         offset="1"
         id="stop3199" />
    </linearGradient>
    <linearGradient
       id="linearGradient3161">
      <stop
         style="stop-color:#d5d5d8;stop-opacity:1;"
         offset="0"
         id="stop3163" />
      <stop
         style="stop-color:#24221f;stop-opacity:1;"
         offset="1"
         id="stop3165" />
    </linearGradient>
    <linearGradient
       id="linearGradient3153">
      <stop
         style="stop-color:#00ff00;stop-opacity:1;"
         offset="0"
         id="stop3155" />
      <stop
         style="stop-color:#376622;stop-opacity:1;"
         offset="1"
         id="stop3157" />
    </linearGradient>
    <linearGradient
       id="linearGradient2162">
      <stop
         style="stop-color:#0a37f8;stop-opacity:1;"
         offset="0"
         id="stop2164" />
      <stop
         style="stop-color:#3a22db;stop-opacity:0;"
         offset="1"
         id="stop2166" />
    </linearGradient>
    <linearGradient
       inkscape:collect="always"
       xlink:href="#linearGradient2162"
       id="linearGradient2168"
       x1="33.612732"
       y1="39.724136"
       x2="13.06126"
       y2="29.3687"
       gradientUnits="userSpaceOnUse"
       gradientTransform="matrix(1.331064,0,0,1.5008012,-3.1909027,-4.4047904)" />
    <linearGradient
       inkscape:collect="always"
       xlink:href="#linearGradient3153"
       id="linearGradient3159"
       x1="29.790378"
       y1="23.641137"
       x2="53.550004"
       y2="23.641137"
       gradientUnits="userSpaceOnUse"
       gradientTransform="matrix(1.2932308,0,0,1.279585,-8.3993536,-4.4106296)" />
    <linearGradient
       inkscape:collect="always"
       xlink:href="#linearGradient3161"
       id="linearGradient3167"
       x1="31.066313"
       y1="32.169763"
       x2="34.970822"
       y2="32.169763"
       gradientUnits="userSpaceOnUse"
       gradientTransform="matrix(1.2932308,0,0,1.279585,-8.3993536,-4.4106296)" />
    <linearGradient
       inkscape:collect="always"
       xlink:href="#linearGradient3195"
       id="linearGradient3201"
       x1="91.040001"
       y1="84.065437"
       x2="38.183765"
       y2="36.069283"
       gradientUnits="userSpaceOnUse" />
  </defs>
  <sodipodi:namedview
     id="base"
     pagecolor="#ffffff"
     bordercolor="#666666"
     borderopacity="1.0"
     gridtolerance="10000"
     guidetolerance="10"
     objecttolerance="10"
     inkscape:pageopacity="0.0"
     inkscape:pageshadow="2"
     inkscape:zoom="5.6568542"
     inkscape:cx="56.004277"
     inkscape:cy="20.072752"
     inkscape:document-units="px"
     inkscape:current-layer="layer1"
     width="64px"
     height="64px"
     inkscape:window-width="908"
     inkscape:window-height="727"
     inkscape:window-x="494"
     inkscape:window-y="406" />
  <metadata
     id="metadata7">
    <rdf:RDF>
      <cc:Work
         rdf:about="">
        <dc:format>image/svg+xml</dc:format>
        <dc:type
           rdf:resource="http://purl.org/dc/dcmitype/StillImage" />
      </cc:Work>
    </rdf:RDF>
  </metadata>
  <g
     inkscape:label="Layer 1"
     inkscape:groupmode="layer"
     id="layer1">
    <rect
       style="opacity:1;fill:url(#linearGradient3201);fill-opacity:1.0;fill-rule:nonzero;stroke:#000000;stroke-width:1.24000001;stroke-linecap:round;stroke-linejoin:round;stroke-miterlimit:4;stroke-dasharray:none;stroke-opacity:1"
       id="rect3193"
       width="70.180351"
       height="69.296463"
       x="-1.2374369"
       y="-1.4073774" />
    <path
       style="fill:url(#linearGradient2168);fill-opacity:1;fill-rule:evenodd;stroke:#000000;stroke-width:1.41338682px;stroke-linecap:butt;stroke-linejoin:miter;stroke-opacity:1"
       d="M 14.660185,37.378788 L 46.972911,37.378788 L 46.746947,58.015799 L 14.208258,58.015799 L 5.6216591,48.07946 C 5.6216591,48.07946 4.7178066,46.805571 5.3956959,45.78646 C 6.0735852,44.767348 6.2995484,44.512569 6.2995484,44.512569 L 14.660185,37.378788 z "
       id="path2160" />
    <rect
       style="opacity:1;fill:url(#linearGradient3167);fill-opacity:1;fill-rule:nonzero;stroke:#000000;stroke-width:1.24000001;stroke-linecap:round;stroke-linejoin:round;stroke-miterlimit:4;stroke-dasharray:none;stroke-opacity:1"
       id="rect3141"
       width="5.0494318"
       height="41.924232"
       x="31.776558"
       y="15.791202" />
    <path
       style="fill:none;fill-rule:evenodd;stroke:#000000;stroke-width:1.41338682px;stroke-linecap:butt;stroke-linejoin:miter;stroke-opacity:1"
       d="M 10.592849,46.550794 C 10.592849,45.705649 13.213525,47.874521 13.530368,48.589017 C 14.215842,50.134786 14.208258,51.564555 14.208258,53.429797 C 14.208258,55.351906 13.074896,56.489132 11.722664,57.251465 C 10.711973,57.821252 8.8588197,57.506243 7.655327,57.506243 C 6.1692014,57.506243 5.2441669,56.061503 4.2658803,54.958465 C 3.5475643,54.148548 3.5879909,52.591125 3.5879909,51.136796 C 3.5879909,49.807676 4.1948321,49.1186 5.1697328,48.843794"
       id="path3149" />
    <path
       style="fill:url(#linearGradient3159);fill-opacity:1;fill-rule:evenodd;stroke:#007300;stroke-width:1.28638983px;stroke-linecap:butt;stroke-linejoin:miter;stroke-opacity:1"
       d="M 31.557019,17.746217 C 31.557019,16.587688 33.898784,17.746217 35.069666,17.746217 C 36.167368,17.746217 37.265072,17.746217 38.362774,17.746217 C 39.698544,17.746217 41.052851,17.841078 42.314503,17.528993 C 43.581423,17.215605 44.480012,16.877321 45.82715,16.877321 C 46.639536,16.877321 48.231305,18.387211 48.461637,18.615113 C 49.266191,19.411177 49.305213,19.964578 49.559339,21.2218 C 49.785858,22.342444 50.145259,23.54075 50.437501,24.697385 C 50.789074,26.088834 51.601984,26.909269 52.632907,27.521296 C 53.705772,28.158223 54.796932,28.172968 56.145554,28.172968 C 57.514836,28.172968 58.717119,28.204097 59.658203,27.73852 C 60.868842,27.139588 59.741023,28.959917 59.438662,29.259088 C 58.617329,30.071753 58.266237,30.85359 57.682338,31.431328 C 56.922391,32.183255 56.247479,32.358411 55.486934,32.734672 C 54.482361,33.231658 53.655914,33.713304 52.632907,34.472464 C 52.209289,34.786825 49.481348,34.600367 49.120259,34.689687 C 48.088576,34.944887 46.680412,34.689687 45.60761,34.689687 C 44.509908,34.689687 43.412205,34.689687 42.314503,34.689687 C 41.216801,34.689687 40.119097,34.689687 39.021395,34.689687 C 38.212964,34.689687 37.179127,34.23398 36.38691,34.038015 C 35.276772,33.76341 34.542335,33.636044 33.532883,33.386344 C 32.788993,33.202334 31.587018,32.749513 31.117937,32.517447 C 30.163151,32.045092 31.409425,30.345208 32.21564,30.345208 C 33.313342,30.345208 34.411044,30.345208 35.508748,30.345208 C 37.144378,30.345208 36.82599,29.892808 36.82599,28.390192 C 36.82599,27.304072 36.82599,26.217953 36.82599,25.131832 C 36.82599,24.045713 36.82599,22.959592 36.82599,21.873472 C 36.82599,20.262632 36.943613,20.135681 35.289206,20.135681 C 34.191504,20.135681 33.093802,20.135681 31.996099,20.135681 C 30.312686,20.135681 30.774935,19.035936 31.557019,17.746217 z "
       id="path3151" />
    <rect
       style="opacity:1;fill:#d52229;fill-opacity:1;fill-rule:nonzero;stroke:#000000;stroke-width:0.55323362;stroke-linecap:round;stroke-linejoin:round;stroke-miterlimit:4;stroke-dasharray:none;stroke-opacity:1"
       id="rect3169"
       width="14.545325"
       height="2.186507"
       x="21.555637"
       y="7.2543612" />
    <path
       sodipodi:type="star"
       style="opacity:1;fill:#d52229;fill-opacity:1;fill-rule:nonzero;stroke:#000000;stroke-width:1.24000001;stroke-linecap:round;stroke-linejoin:round;stroke-miterlimit:4;stroke-dasharray:none;stroke-opacity:1"
       id="path3171"
       sodipodi:sides="3"
       sodipodi:cx="16.636604"
       sodipodi:cy="12.392573"
       sodipodi:r1="6.2834606"
       sodipodi:r2="3.1417303"
       sodipodi:arg1="-0.027020449"
       sodipodi:arg2="1.0201771"
       inkscape:flatsided="true"
       inkscape:rounded="0"
       inkscape:randomized="0"
       d="M 22.917771,12.222812 L 13.643038,17.917104 L 13.349003,7.0378038 L 22.917771,12.222812 z "
       transform="matrix(0.6672606,0,0,0.6636663,27.0159,0.2920794)" />
    <text
       xml:space="preserve"
       style="font-size:7.07739019px;font-style:normal;font-weight:bold;fill:#000000;fill-opacity:1;stroke:none;stroke-width:1px;stroke-linecap:butt;stroke-linejoin:miter;stroke-opacity:1;font-family:Bitstream Vera Sans"
       x="2.9443336"
       y="11.44148"
       id="text3181"
       transform="scale(1.0743962,0.9307553)"><tspan
         sodipodi:role="line"
         id="tspan3183"
         x="2.9443336"
         y="11.44148">0110</tspan></text>
    <text
       xml:space="preserve"
       style="font-size:7.07739019px;font-style:normal;font-weight:bold;fill:#000000;fill-opacity:1;stroke:none;stroke-width:1px;stroke-linecap:butt;stroke-linejoin:miter;stroke-opacity:1;font-family:Bitstream Vera Sans"
       x="40.52206"
       y="11.62414"
       id="text3185"
       transform="scale(1.0743962,0.9307553)"><tspan
         sodipodi:role="line"
         id="tspan3187"
         x="40.52206"
         y="11.62414">0110</tspan></text>
  </g>
</svg>
